<svg width="1038" height="709" viewBox="0 0 1038 709" fill="none" xmlns="http://www.w3.org/2000/svg">
<path fill-rule="evenodd" clip-rule="evenodd" d="M3.606 6.439C0.452 12.078 0.043 13.586 0.307 18.593L0.609 24.309L7.109 13C10.684 6.78 13.759 1.31 13.942 0.845C14.126 0.38 12.685 0 10.741 0C7.434 0 6.975 0.414 3.606 6.439ZM147.109 0.917C147.109 1.422 145.084 5.26 142.609 9.446C140.134 13.632 138.109 17.27 138.109 17.529C138.109 17.788 139.641 18 141.514 18C144.707 18 145.205 17.512 149.514 10.162C152.041 5.851 154.109 1.801 154.109 1.162C154.109 0.501 152.601 0 150.609 0C148.684 0 147.109 0.413 147.109 0.917ZM177.109 0.469C177.109 0.727 179.376 4.777 182.148 9.469C186.944 17.59 187.355 18 190.683 18C194.7 18 194.859 18.633 187.858 6.75C184.193 0.529 183.616 0 180.495 0C178.633 0 177.109 0.211 177.109 0.469ZM315.48 5.75C317.275 8.912 321.81 16.788 325.558 23.25L332.373 35L368.991 34.945L405.609 34.889L407.935 31.945L410.261 29H373.247H336.232L327.921 14.518L319.609 0.036L315.913 0.018L312.218 0L315.48 5.75ZM447.609 8.734C444.859 13.531 441.104 20.083 439.264 23.294L435.919 29.132L439.703 28.816C443.439 28.504 443.589 28.323 451.746 14.25L460.006 0L456.307 0.007C452.71 0.013 452.473 0.251 447.609 8.734ZM603.146 3.179C602.083 4.928 601.352 6.615 601.522 6.929C601.843 7.521 619 37.159 631.665 59L638.913 71.5L617.119 71.769L595.324 72.038L584.809 90.269C566.741 121.595 553.659 144.219 549.258 151.75L545.021 159L523.315 158.968L501.609 158.937L468.328 101.044L435.047 43.15L437.074 39.825C439.779 35.389 439.672 35 435.748 35C432.806 35 432.101 35.538 430.099 39.312L427.811 43.625L434.79 55.562C438.628 62.128 448.766 79.65 457.319 94.5C465.871 109.35 478.456 131.175 485.285 143L497.701 164.5L519.678 164.769L541.656 165.037L543.439 162.019C544.902 159.541 545.884 158.994 548.916 158.967C552.589 158.934 552.648 158.865 559.906 146.217C563.919 139.223 574.307 121.204 582.99 106.175L598.776 78.851L620.443 78.96C638.928 79.054 642.109 78.853 642.109 77.594C642.109 76.782 641.659 75.84 641.109 75.5C639.029 74.214 640.183 72.119 643.14 71.813L646.17 71.5L627.496 39.164L608.821 6.827L610.449 3.414L612.077 0H608.578C605.719 0 604.726 0.581 603.146 3.179ZM678.88 3.25C680.743 6.38 686.098 15.581 697.004 34.385L702.157 43.269L694.133 57.08C689.72 64.676 686.109 71.14 686.109 71.445C686.109 71.75 687.617 72 689.46 72C692.714 72 693.049 71.592 700.96 58.014C705.442 50.322 709.109 43.727 709.109 43.358C709.109 42.99 703.596 33.103 696.859 21.386L684.609 0.082L680.777 0.041L676.946 0L678.88 3.25ZM821.359 24.862C813.522 38.504 807.109 49.966 807.109 50.333C807.109 50.7 808.62 51 810.467 51C814.087 51 813.997 51.137 837.765 9.25L843.014 0L839.312 0.03L835.609 0.06L821.359 24.862ZM953.215 16.257C948.048 25.191 941.395 36.662 938.432 41.75L933.044 51H895.191H857.339L855.724 53.465C854.836 54.82 854.109 56.17 854.109 56.465C854.109 56.759 872.74 57 895.511 57H936.913L944.347 44.25C948.435 37.237 952.93 29.475 954.336 27C955.742 24.525 959.851 17.438 963.467 11.25L970.042 0L966.325 0.007L962.609 0.015L953.215 16.257ZM1026.5 8.75C1023.73 13.563 1015.71 27.484 1008.68 39.686L995.903 61.871L1005.26 78.126C1010.4 87.066 1014.76 94.745 1014.94 95.19C1015.13 95.636 1005.84 96 994.312 96H973.348L965.065 110.25C960.51 118.088 955.058 127.425 952.95 131L949.117 137.5L952.24 137.823C953.958 138 955.822 137.687 956.383 137.126C956.943 136.566 961.781 128.546 967.134 119.304L976.867 102.5L997.932 102.23L1019 101.961L1023.17 109.23C1025.46 113.229 1029.16 119.629 1031.39 123.452L1035.44 130.405L1037.01 127.086C1038.55 123.833 1038.51 123.627 1034.7 116.634C1027.28 103.017 1026.44 102 1022.71 102C1020.23 102 1018.91 101.348 1017.72 99.535C1015.54 96.21 1015.63 96 1019.22 96C1021.29 96 1022.16 95.585 1021.84 94.75C1021.58 94.063 1017.26 86.329 1012.24 77.564C1003.99 63.147 1003.25 61.432 1004.46 59.564C1006.96 55.7 1037.18 2.992 1037.75 1.493C1038.19 0.35 1037.53 0 1034.93 0C1031.71 0 1031.27 0.455 1026.5 8.75ZM195.109 18.453C195.109 18.702 195.631 20.052 196.27 21.453L197.43 24L231.02 24.012L264.609 24.025L268.751 31.262C279.549 50.129 293.099 73.59 299.247 84.068C305.542 94.796 306.256 95.636 309.072 95.636C310.742 95.636 312.109 95.206 312.109 94.679C312.109 93.814 276.068 30.744 270.433 21.75L268.084 18H231.596C211.528 18 195.109 18.204 195.109 18.453ZM408.181 36.413C407.497 37.238 407.196 38.331 407.512 38.843C407.829 39.355 407.404 39.712 406.569 39.637C405.575 39.547 399.57 49.001 389.189 67L373.328 94.5L343.718 94.765C326.137 94.922 314.109 95.411 314.109 95.968C314.109 96.484 314.634 98.059 315.276 99.467L316.443 102.029L346.526 101.764L376.609 101.5L386.682 84C392.222 74.375 400.231 60.484 404.48 53.132C408.73 45.78 411.935 39.493 411.603 39.161C411.272 38.829 410.532 39.22 409.96 40.029C409.09 41.26 409.008 41.225 409.458 39.815C409.754 38.888 409.459 37.904 408.803 37.628C408.146 37.352 408.509 37.211 409.609 37.313C411.881 37.525 412.956 35.656 410.82 35.207C410.053 35.046 408.865 35.589 408.181 36.413ZM0.109 49V52L28.359 52.015C43.897 52.024 57.096 52.361 57.691 52.765C58.287 53.169 60.47 56.425 62.544 60C67.221 68.065 66.847 67.728 68.588 65.427C70.768 62.544 70.489 61.27 65.931 53.303L61.752 46H30.931H0.109V49ZM72.548 71.206L70.887 74.689L79.375 89.357L87.863 104.024L89.486 101.547C90.379 100.185 91.109 98.588 91.109 97.999C91.109 97.409 87.306 90.356 82.659 82.325L74.209 67.723L72.548 71.206ZM817.224 107.479L808.88 122H779.969H751.058L752.609 125L754.16 128H751.135C749.471 128 748.109 128.442 748.109 128.982C748.109 129.523 751.847 136.385 756.416 144.232C771.434 170.024 778.109 181.723 778.109 182.25C778.109 182.536 774.287 189.303 769.615 197.289C758.816 215.746 759.084 215 763.252 214.999C766.532 214.997 766.822 214.632 775.859 199.115C780.946 190.38 785.109 182.775 785.109 182.215C785.109 181.656 778.561 169.881 770.559 156.049C762.556 142.218 755.758 130.248 755.452 129.45C754.973 128.204 758.957 128 783.799 128H812.702L820.906 113.735C825.417 105.889 829.099 99.026 829.087 98.485C829.075 97.943 828.278 96.478 827.316 95.229C825.573 92.963 825.546 92.995 817.224 107.479ZM0.109 113V116H19.109C31.962 116 38.109 116.347 38.109 117.072C38.109 117.662 35.592 122.499 32.516 127.822C10.537 165.854 9.792 167.262 10.79 168.883C11.337 169.772 19.79 184.45 29.573 201.5C39.357 218.55 49.621 236.272 52.382 240.881L57.402 249.263L59.238 246.881C60.247 245.572 60.841 243.861 60.558 243.081C60.274 242.301 50.377 224.899 38.564 204.41L17.085 167.157L25.95 151.829C30.827 143.398 35.112 135.275 35.475 133.778C35.837 132.28 36.974 130.255 38.002 129.278C39.909 127.463 46.109 117.798 46.109 116.639C46.109 116.288 44.711 116 43.002 116C39.79 116 39.82 116.121 41.812 111.25C42.211 110.273 37.707 110 21.216 110H0.109V113ZM667.438 115.62C665.779 118.152 665.81 118.395 668.348 122.87L670.975 127.5L709.074 127.762L747.173 128.024L745.615 125.012L744.058 122H709.678H675.299L672.662 117.5C671.211 115.025 669.829 113 669.59 113C669.351 113 668.383 114.179 667.438 115.62ZM326.109 117.377C326.109 118.148 326.897 119.731 327.859 120.894C329.573 122.967 330.332 123.015 364.948 123.255L400.286 123.5L409.052 138.5C426.359 168.114 464.017 233.703 465.186 236.269C466.282 238.674 465.756 239.96 458.744 252.027C454.545 259.253 451.109 265.354 451.109 265.583C451.109 265.812 452.649 266 454.532 266C457.869 266 458.15 265.666 465.674 252.75C469.92 245.463 473.404 239.019 473.418 238.432C473.438 237.554 423.801 150.785 407.956 124L403.519 116.5L364.814 116.238C332.168 116.017 326.109 116.196 326.109 117.377ZM831.265 155.25C825.763 164.738 815.816 181.95 809.162 193.5L797.062 214.5L800.638 215C804.033 215.475 804.137 215.601 802.693 217.5C801.857 218.6 801.158 219.838 801.141 220.25C801.123 220.662 809.171 221 819.024 221H836.938L839.332 225.25C843.954 233.455 873.36 284.537 875.398 287.9L877.458 291.3L879.597 288.618L881.736 285.935L883.092 288.467C883.837 289.86 884.708 290.998 885.028 290.996C885.348 290.994 888.952 285.178 893.038 278.073L900.467 265.154L919.038 264.607C929.252 264.307 939.184 263.935 941.109 263.78C943.034 263.626 944.94 263.95 945.344 264.5C945.748 265.05 946.085 264.536 946.094 263.357C946.102 262.178 945.411 260.946 944.557 260.618C943.703 260.291 943.261 260.437 943.573 260.942C943.886 261.448 943.684 262.144 943.125 262.49C942.563 262.838 942.109 262.199 942.109 261.059C942.109 259.04 941.664 259 919.359 259.015L896.609 259.029L889.123 272.051C880.508 287.036 882.113 287.092 873.37 271.5C867.276 260.632 865.249 257.796 864.089 258.513C863.674 258.769 862.722 258.195 861.972 257.239C860.739 255.665 860.775 255.63 862.359 256.872C863.444 257.724 864.109 257.832 864.109 257.158C864.109 256.56 863.209 255.589 862.109 255C861.009 254.411 860.116 253.383 860.124 252.715C860.134 251.952 860.5 252.058 861.109 253C862.346 254.915 862.407 253.532 861.186 251.236C860.678 250.281 855.874 241.738 850.511 232.25L840.76 215H822.934C813.13 215 805.109 214.604 805.109 214.12C805.109 213.637 808.335 207.674 812.277 200.87C816.22 194.067 825.156 178.6 832.135 166.5L844.823 144.5L849.966 144.198C852.795 144.031 855.109 143.678 855.109 143.413C855.109 143.147 854.382 141.82 853.494 140.465C852.113 138.358 851.109 138 846.574 138H841.269L831.265 155.25ZM180.639 140C180.486 140.275 170.106 158.275 157.572 180C123.811 238.516 126.986 232.645 129.661 231.618C130.551 231.277 130.952 231.445 130.602 232.011C130.266 232.555 130.871 233 131.946 233C134.408 233 135.085 231.928 160.679 187.5C172.085 167.7 182.135 150.265 183.013 148.756L184.609 146.013L215.143 146.006L245.678 146L247.435 143.026L249.192 140.052L215.054 139.776C196.279 139.624 180.792 139.725 180.639 140ZM856.109 144.504C856.109 144.781 860.215 152.206 865.234 161.004L874.36 177L900.484 176.994L926.609 176.987L928.312 173.994L930.016 171H904.123H878.23L870.554 157.5C863.071 144.337 862.794 144 859.494 144C857.632 144 856.109 144.227 856.109 144.504ZM986.823 202.25C994.826 216.137 1002.75 229.992 1004.42 233.038L1007.48 238.576L1001.79 248.232C998.666 253.543 996.109 258.139 996.109 258.444C996.109 258.75 997.507 259 999.216 259C1001.58 259 1002.18 259.358 1001.72 260.5C1001.38 261.325 1000.84 262.675 1000.5 263.5C999.977 264.798 1002.19 265 1016.95 265H1034.01L1037.81 271.75L1041.61 278.5L1041.91 272.726C1042.14 268.218 1041.72 266.081 1039.97 262.976L1037.74 259H1020.92C1009.37 259 1004.11 258.656 1004.11 257.901C1004.11 257.297 1006.36 252.98 1009.11 248.307C1011.86 243.635 1014.11 239.168 1014.11 238.382C1014.11 237.595 1007.28 225.15 998.929 210.726C990.58 196.302 982.817 182.816 981.679 180.758C979.874 177.496 979.139 177.015 975.94 177.008L972.271 177L986.823 202.25ZM331.724 206.465C330.836 207.82 330.109 209.191 330.109 209.51C330.109 209.83 333.967 216.781 338.683 224.958L347.258 239.825L329.773 270.162C320.157 286.848 307.998 307.925 302.753 317L293.218 333.5L274.149 333.772L255.08 334.043L256.589 336.962L258.098 339.88L254.72 340.19L251.341 340.5L256.939 350.25L262.537 360L274.073 359.93C282.142 359.881 285.008 359.574 283.609 358.909C281.989 358.139 282.084 358.097 284.109 358.686C285.484 359.086 302.842 359.561 322.683 359.742L358.756 360.07L359.933 357.488C360.58 356.068 361.109 354.684 361.109 354.413C361.109 353.477 286.655 354.172 284.875 355.125C283.716 355.746 283.109 355.715 283.109 355.035C283.109 354.404 279.828 354 274.695 354H266.281L262.695 347.588C260.723 344.061 259.109 340.911 259.109 340.588C259.109 340.264 267.613 340 278.007 340H296.906L305.344 325.25C309.986 317.137 322.385 295.604 332.9 277.399C343.414 259.193 352.531 243.167 353.161 241.786C354.2 239.504 353.37 237.657 344.104 221.637C338.493 211.937 333.775 204 333.621 204C333.466 204 332.612 205.109 331.724 206.465ZM515.722 214.75C514.393 216.813 508.029 227.725 501.578 239C495.127 250.275 488.952 260.993 487.856 262.818L485.862 266.135L489.711 265.818L493.559 265.5L507.219 242L520.879 218.5L536.244 218C544.695 217.725 551.538 217.275 551.451 217C551.365 216.725 550.73 215.262 550.041 213.75L548.788 211H533.463H518.137L515.722 214.75ZM553.109 218.266C553.109 219.069 560.719 232.419 591.291 285.25L595.197 292H625.096C654.86 292 655.003 291.99 656.552 289.777C657.408 288.555 658.109 287.212 658.109 286.792C658.109 286.373 644.746 285.911 628.413 285.765L598.717 285.5L579.434 252C560.589 219.26 560.072 218.487 556.63 217.907C554.655 217.575 553.109 217.732 553.109 218.266ZM754.344 223.875C753.39 225.456 744.959 240.068 735.609 256.345L718.609 285.941L710.252 285.97C703.969 285.993 702.022 286.31 702.406 287.25C704.398 292.121 704.428 292 701.216 292C699.507 292 698.109 292.163 698.109 292.363C698.109 292.562 702.876 300.957 708.701 311.018C714.527 321.08 719.747 330.306 720.3 331.521C721.16 333.408 719.677 336.55 710.105 353.115C674.996 413.869 677.772 408.556 679.645 411.414C681.667 414.5 682.246 414.228 685.338 408.741C686.652 406.408 693.061 395.275 699.581 384C724.449 340.995 728.1 334.456 728.059 333C728.036 332.175 722.909 322.725 716.665 312L705.313 292.5L713.961 292L722.609 291.5L741.394 259C751.725 241.125 760.849 225.262 761.669 223.75L763.16 221H759.62C756.789 221 755.732 221.576 754.344 223.875ZM788.697 228.953C786.173 233.328 784.111 237.49 784.113 238.203C784.115 238.917 788.528 247.15 793.918 256.5C799.309 265.85 812.213 288.238 822.594 306.25L841.468 339H845.72C849.273 339 850.313 338.522 852.041 336.096C853.178 334.498 854.109 332.923 854.109 332.596C854.109 332.268 851.971 331.993 849.359 331.983L844.609 331.967L818.109 285.868C803.534 260.514 791.451 239.346 791.257 238.828C791.063 238.311 792.976 234.323 795.507 229.967C798.038 225.61 800.109 221.811 800.109 221.523C800.109 221.235 798.573 221 796.697 221C793.484 221 793.016 221.466 788.697 228.953ZM125.802 236.126C124.258 237.793 123.147 239.459 123.334 239.829C123.521 240.198 124.293 241.738 125.052 243.25C126.675 246.489 128.154 246.713 130.535 244.081C132.188 242.255 132.175 242.066 130.253 240.144C129.142 239.033 128.572 237.984 128.986 237.813C129.4 237.641 129.484 236.509 129.174 235.298C128.621 233.142 128.549 233.16 125.802 236.126ZM130.609 235C130.269 235.55 130.468 236 131.05 236C131.632 236 132.109 235.55 132.109 235C132.109 234.45 131.911 234 131.668 234C131.425 234 130.949 234.45 130.609 235ZM130.091 245.522C128.977 246.863 128.97 247.296 130.051 247.964C130.774 248.411 131.097 249.21 130.769 249.741C129.945 251.074 132.459 254.287 134.568 254.597C136.046 254.814 136.205 254.305 135.636 251.176C135.269 249.154 134.176 246.688 133.206 245.695C131.584 244.034 131.337 244.02 130.091 245.522ZM0.109 251.96V254.919L8.203 255.21L16.298 255.5L24.483 269.5C28.984 277.2 39.572 295.522 48.011 310.215L63.354 336.93L55.78 349.965L48.205 363L51.907 362.999C55.589 362.998 55.646 362.933 62.609 350.837C66.459 344.148 69.749 338.103 69.92 337.403C70.091 336.703 61.345 320.689 50.485 301.815C39.625 282.942 29.135 264.692 27.174 261.259C23.807 255.365 23.402 255.018 19.885 255.009C16.762 255.001 15.91 254.515 14.609 252C13.128 249.135 12.766 249 6.583 249H0.109V251.96ZM136.609 255C136.258 255.568 135.552 255.774 135.04 255.457C131.876 253.502 135.869 261.88 148.84 284.411C163.364 309.641 163.616 310 166.84 310C168.638 310 170.109 309.703 170.109 309.339C170.109 307.468 141.416 259.027 140.3 259.015C139.58 259.007 139.266 258.555 139.602 258.011C139.952 257.445 139.551 257.277 138.661 257.618C137.807 257.946 137.109 257.753 137.109 257.19C137.109 256.627 137.649 255.987 138.31 255.766C139.187 255.474 139.206 255.178 138.379 254.667C137.756 254.282 136.96 254.432 136.609 255ZM675.362 257.25C674.163 258.761 659.109 285.011 659.109 285.591C659.109 285.816 660.649 286 662.53 286C665.856 286 666.146 285.661 672.947 273.79C679.693 262.015 679.892 261.48 678.5 258.79C676.856 255.61 676.717 255.542 675.362 257.25ZM958.948 283.492C964.811 293.663 969.935 301.988 970.333 301.992C970.732 301.997 971.688 300.762 972.457 299.25C973.804 296.605 973.512 295.9 964.804 280.75L955.75 265H952.019H948.287L958.948 283.492ZM389.137 306.75C376.246 329.163 364.828 348.993 363.764 350.819L361.83 354.137L365.666 353.819L369.502 353.5L382.805 330.5C390.123 317.85 400.701 299.512 406.314 289.75L416.518 272H431.757C446.371 272 447.059 271.909 448.552 269.777C449.408 268.555 450.109 267.205 450.109 266.777C450.109 266.35 441.664 266 431.342 266H412.575L389.137 306.75ZM465.181 302.192C455.608 318.797 447.79 332.86 447.807 333.442C447.825 334.024 463.469 361.613 482.572 394.75L517.305 455H547.592H577.879L579.494 452.535C580.382 451.18 581.109 449.83 581.109 449.535C581.109 449.241 567.628 449 551.151 449H521.193L518.771 444.75C517.439 442.413 511.413 431.95 505.381 421.5C499.349 411.05 485.733 387.463 475.124 369.084C464.515 350.705 455.648 334.953 455.42 334.08C455.191 333.207 462.475 319.537 471.606 303.701C480.736 287.865 488.458 274.254 488.765 273.454C489.185 272.359 488.491 272 485.955 272C482.589 272 482.573 272.023 465.181 302.192ZM1009.88 325.25C1008.55 327.587 1003.17 336.925 997.916 346C992.662 355.075 980.647 375.883 971.217 392.24L954.072 421.981L956.603 425.99C958.636 429.21 959.722 430 962.122 430C965.44 430 965.944 428.486 963.641 425.441C962.833 424.374 962.158 422.854 962.141 422.064C962.123 421.274 966.558 412.949 971.995 403.564C989.159 373.936 1010.65 336.663 1013.11 332.25L1015.48 328H1028.79H1042.11V324.5V321H1027.19H1012.28L1009.88 325.25ZM898.996 344.75C897.204 347.913 890.196 360.079 883.423 371.788C876.65 383.496 871.109 393.283 871.109 393.538C871.109 393.792 872.647 394 874.527 394C877.811 394 878.178 393.597 883.859 383.75C887.112 378.113 894.124 365.967 899.441 356.761C904.758 347.554 909.109 339.792 909.109 339.511C909.109 339.23 907.567 339 905.682 339C902.555 339 901.971 339.503 898.996 344.75ZM292.109 358C292.109 358.55 291.321 358.993 290.359 358.985C288.863 358.972 288.827 358.828 290.109 358C291.996 356.78 292.109 356.78 292.109 358ZM37.41 381.75C33.613 388.212 23.643 405.468 15.253 420.097L0 446.693L0.305 452.439L0.609 458.184L15.515 432.342C23.714 418.129 35.076 398.5 40.765 388.721C46.454 378.943 51.109 370.731 51.109 370.471C51.109 370.212 49.58 370 47.711 370C44.432 370 44.073 370.41 37.41 381.75ZM178.169 379.25C177.387 380.488 173.452 387.223 169.424 394.219L162.1 406.937L164.001 410.063L165.902 413.189L169.313 407.345C171.188 404.13 174.947 397.565 177.666 392.757L182.609 384.013L238.884 384.007L295.158 384L297.662 388.25C306.661 403.529 320.258 427.225 320.729 428.452C321.189 429.65 319.809 429.969 313.133 430.208L304.975 430.5L297.464 443.5C293.333 450.65 277.601 477.93 262.505 504.121L235.056 551.743L242.685 564.871C250.103 577.637 250.408 578 253.711 578C255.58 578 257.109 577.815 257.109 577.589C257.109 577.363 253.803 571.429 249.763 564.401L242.417 551.623L256.582 527.061C264.373 513.553 276.081 493.275 282.599 482C289.118 470.725 297.696 455.875 301.661 449L308.871 436.5H317.195H325.52L338.229 458.474C349.041 477.166 350.78 480.751 349.871 482.474C349.283 483.588 338.67 502.05 326.286 523.5C313.901 544.95 301.794 565.987 299.379 570.25L294.99 578H276.549C266.407 578 258.109 578.35 258.109 578.777C258.109 579.205 258.81 580.555 259.666 581.777C261.18 583.94 261.729 584 280.004 584H298.786L328.447 532.52C344.761 504.207 358.109 480.875 358.109 480.673C358.109 480.472 352.484 470.556 345.609 458.639C338.734 446.721 333.109 436.743 333.109 436.463C333.109 436.184 341.501 436.078 351.758 436.228L370.406 436.5L391.508 473.226L412.609 509.952L448.885 509.976L485.16 510L483.609 507L482.058 504H449.783C427.566 504 417.165 503.656 416.405 502.896C415.797 502.288 406.82 486.999 396.455 468.921L377.609 436.05L373.916 436.025C370.885 436.004 369.904 435.461 368.45 433L366.678 430H347.778H328.879L330.494 432.465C332.696 435.826 332.604 436 328.635 436C325.786 436 324.881 435.46 323.609 433L322.058 430H325.157C327.222 430 328.148 429.559 327.932 428.678C327.754 427.951 321.084 416.028 313.109 402.181L298.609 377.005L239.1 377.003L179.59 377L178.169 379.25ZM764.473 408.262C759.998 416.093 752.475 429.137 747.756 437.25L739.176 452H742.917C746.57 452 746.774 451.796 751.676 443.25C754.436 438.438 761.175 426.739 766.652 417.254L776.609 400.009L806.885 400.004L837.16 400L835.609 397L834.058 394L803.333 394.012L772.609 394.023L764.473 408.262ZM876.666 396.223C875.81 397.445 875.109 398.795 875.109 399.223C875.109 399.65 878.821 400.01 883.359 400.021L891.609 400.042L901.27 416.771C906.583 425.972 914.645 439.91 919.185 447.744L927.439 461.987L929.305 458.918L931.171 455.85L917.482 432.175C909.953 419.154 901.952 405.238 899.701 401.25L895.609 394.001L886.916 394C879.066 394 878.071 394.216 876.666 396.223ZM163.729 416.769C162.329 419.475 162.727 420.285 181.22 452.376L200.143 485.215L197.319 490.358C195.765 493.186 187.825 507.066 179.674 521.203L164.853 546.906L166.779 549.947L168.704 552.988L187.907 519.671C198.468 501.346 207.109 485.977 207.109 485.518C207.109 484.17 166.68 414.058 165.885 414.028C165.486 414.012 164.516 415.246 163.729 416.769ZM679.68 418.531C677.959 421.158 677.979 421.208 686.727 436.333C691.552 444.675 696.425 453.184 697.555 455.242L699.609 458.984L717.302 458.992C734.457 459 735.043 458.932 736.552 456.777C739.739 452.228 739.212 452.063 720.501 451.773L702.893 451.5L693.046 434.595C687.63 425.297 682.795 417.286 682.302 416.793C681.774 416.265 680.698 416.979 679.68 418.531ZM924.542 467.25C915.951 481.752 908.109 495.587 908.109 496.239C908.109 496.658 909.592 497 911.406 497C914.598 497 914.963 496.547 922.988 482.591C931.199 468.312 931.259 468.159 929.577 465.591C928.643 464.166 927.695 463 927.469 463C927.244 463 925.927 464.913 924.542 467.25ZM890.109 526.664C882.684 539.648 876.464 550.646 876.286 551.105C876.108 551.564 880.786 560.316 886.681 570.555L897.398 589.171L899.344 586.097L901.29 583.024L892.199 567.382L883.107 551.741L888.303 542.62C891.16 537.604 896.943 527.635 901.152 520.467C912.504 501.137 911.839 502.995 907.394 503.029L903.609 503.057L890.109 526.664ZM1003.78 507.75C1005.29 510.363 1007.7 514.525 1009.14 517L1011.75 521.5L1026.93 521.776L1042.11 522.052V519.026V516L1028.86 515.999L1015.61 515.997L1012.11 509.5C1008.75 503.262 1008.46 503.003 1004.82 503.001L1001.03 503L1003.78 507.75ZM0.109 516V519L40.359 519.016L80.609 519.032L90.862 536.766C96.501 546.52 107.076 564.85 114.362 577.5C127.045 599.518 127.749 600.513 130.86 600.813C132.647 600.986 134.109 600.673 134.109 600.119C134.109 599.564 124.801 582.998 113.425 563.305C102.049 543.612 90.912 524.247 88.675 520.272L84.609 513.043L42.359 513.022L0.109 513V516ZM727.829 513.614C727.532 513.91 728.037 515.465 728.949 517.07L730.609 519.987L761.268 519.994L791.927 520L801.461 536.25C806.705 545.188 811.471 552.388 812.052 552.25C812.633 552.113 813.109 552.922 813.109 554.05C813.109 557.558 815.982 562 818.251 562C819.942 562 820.251 562.478 819.864 564.5C819.272 567.598 819.895 567.752 820.995 564.779C821.754 562.726 821.852 562.798 822.282 565.726C822.538 567.468 822.434 568.701 822.052 568.465C820.369 567.424 824.154 575.53 830.609 586.789C837.588 598.962 837.62 598.998 841.333 598.999C844.446 599 845.308 599.485 846.583 601.95C848.618 605.884 848.575 606 845.109 606C843.459 606 842.109 606.19 842.109 606.422C842.109 606.654 845.707 613.067 850.106 620.672C854.504 628.277 858.104 634.952 858.106 635.504C858.107 636.056 848.898 652.481 837.639 672.004C817.882 706.265 817.258 707.511 819.724 707.825C823.792 708.342 824.494 707.683 829.826 698.345C832.605 693.48 840.603 679.6 847.601 667.5C854.599 655.4 861.607 643.246 863.176 640.49L866.029 635.481L857.637 620.99L849.246 606.5L872.103 606.232L894.96 605.964L898.044 600.951C900.994 596.157 901.061 595.809 899.593 592.969C898.749 591.336 897.863 590 897.625 590C897.388 590 896.002 592.033 894.546 594.518L891.898 599.036L868.254 598.768L844.609 598.5L834.861 581.5C824.109 562.749 822.59 560.585 820.912 561.621C820.156 562.089 819.985 561.765 820.408 560.664C821.155 558.716 820.252 555.793 819.12 556.493C818.691 556.758 817.832 555.068 817.21 552.738C816.589 550.407 811.467 540.625 805.829 531L795.577 513.5L761.972 513.287C743.49 513.171 728.125 513.317 727.829 513.614ZM477.342 535.25C476.785 535.938 466.995 552.7 455.585 572.5C444.176 592.3 431.526 614.227 427.475 621.226C423.424 628.225 420.109 634.247 420.109 634.606C420.109 636.346 438.411 666.996 439.434 666.968C440.08 666.951 441.412 666.328 442.392 665.583C444.052 664.324 443.583 663.209 435.616 649.484L427.057 634.737L453.922 588.119L480.786 541.5L491.448 541.216C502.785 540.914 503.546 540.497 500.552 536.223C499.115 534.17 498.206 534 488.675 534C481.624 534 478.033 534.396 477.342 535.25ZM940.413 587.666C922.4 618.992 922.232 619.338 923.706 622.187C924.524 623.77 925.552 624.844 925.989 624.574C926.426 624.304 934.823 610.114 944.649 593.042L962.515 562H993.871C1011.12 562 1025.02 561.663 1024.77 561.25C1024.52 560.837 1024.95 559.92 1025.71 559.211C1026.48 558.501 1027.11 558.375 1027.11 558.929C1027.11 559.484 1027.82 559.664 1028.69 559.329C1029.97 558.84 1030.02 558.557 1028.94 557.876C1027.04 556.668 1028.86 556.799 1031.18 558.035C1032.24 558.605 1033.11 559.73 1033.11 560.535C1033.11 561.605 1034.32 562 1037.61 562C1041.94 562 1042.11 561.889 1042.11 559V556L1000.36 556.011L958.609 556.022L940.413 587.666ZM818.792 560.188C818.473 560.985 818.236 560.748 818.188 559.583C818.145 558.529 818.381 557.939 818.713 558.271C819.045 558.603 819.081 559.466 818.792 560.188ZM1030.52 559.859C1030.81 560.332 1029.94 560.597 1028.58 560.447C1027.22 560.298 1026.11 560.586 1026.11 561.088C1026.11 561.59 1027.46 562 1029.11 562C1031.11 562 1032.11 561.5 1032.11 560.5C1032.11 559.675 1031.63 559 1031.05 559C1030.47 559 1030.23 559.387 1030.52 559.859ZM622.177 582.75C621.488 584.263 620.965 585.725 621.016 586C621.066 586.275 637.609 586.725 657.777 587L694.448 587.5L721.206 633.963C735.923 659.517 747.833 680.667 747.672 680.963C745.87 684.283 734.438 704.047 733.336 705.75C731.913 707.947 731.97 708 735.744 707.991L739.609 707.983L746.609 695.811C750.459 689.116 753.986 682.886 754.446 681.966C755.274 680.312 753.771 677.549 724.25 626.5C719.797 618.8 711.982 605.197 706.882 596.271L697.609 580.042L660.52 580.021L623.43 580L622.177 582.75ZM608.791 593.25C594.574 617.446 584.858 634.592 584.849 635.5C584.833 636.981 613.246 686 614.119 686C614.53 686 615.418 684.668 616.092 683.04C617.265 680.209 616.77 679.129 604.617 658.014C597.631 645.877 592.133 635.379 592.399 634.686C592.665 633.992 598.56 623.635 605.499 611.669C618.054 590.02 618.108 589.899 616.587 586.957C615.746 585.331 614.87 584 614.642 584C614.413 584 611.78 588.163 608.791 593.25ZM0.109 604V607H29.609C45.834 607 59.109 606.759 59.109 606.465C59.109 606.17 58.382 604.82 57.494 603.465L55.879 601H27.994H0.109V604ZM219.807 606.75C216.659 612.001 186.632 663.992 171.459 690.464L165.175 701.428L166.941 704.464C168.327 706.846 169.506 707.567 172.421 707.811L176.135 708.122L174.453 704.595L172.771 701.069L189.88 671.284C199.29 654.903 211.411 633.85 216.815 624.5L226.641 607.5L246.817 607.229L266.992 606.959L265.301 603.986L263.609 601.013L243.431 601.006L223.254 601L219.807 606.75ZM132.109 607.631C132.109 607.978 135.371 613.926 139.359 620.849C143.347 627.771 146.747 633.752 146.916 634.138C147.156 634.689 116.103 689.493 106.905 704.75L104.946 708L108.777 707.961L112.609 707.922L132.109 673.921C142.834 655.221 152.23 638.638 152.988 637.071C154.315 634.329 154.068 633.702 146.508 620.61C138.941 607.508 138.525 607 135.378 607C133.58 607 132.109 607.284 132.109 607.631ZM268.109 608.056C268.109 608.707 271.184 614.473 274.942 620.87C278.7 627.266 287.137 641.825 293.692 653.222L305.609 673.944L339.6 674.222L373.59 674.5L381.448 687.949C389.178 701.18 389.28 701.441 387.707 704.103C385.52 707.805 385.616 708 389.625 708C392.641 708 393.373 707.515 394.767 704.591L396.393 701.181L388.57 687.591L380.746 674H377.026C373.838 674 373.013 673.502 371.25 670.515L369.194 667.029L338.949 666.765L308.705 666.5L291.616 637C275.223 608.701 274.397 607.487 271.318 607.187C269.338 606.993 268.109 607.326 268.109 608.056ZM909.707 640.831L901 655.867L903.041 659.867C904.164 662.068 905.985 664.5 907.089 665.274C908.193 666.047 908.799 666.977 908.436 667.34C908.073 667.703 908.327 668 909.001 668C909.675 668 909.996 668.373 909.714 668.83C909.127 669.779 913.551 678.376 923.609 695.833L930.609 707.983L934.441 707.991L938.272 708L936.318 704.75C935.243 702.962 929.293 692.725 923.096 682C916.898 671.275 911.007 661.123 910.004 659.439L908.18 656.378L914.894 644.693C918.587 638.266 921.885 633.006 922.222 633.004C922.559 633.002 928.128 642.225 934.597 653.5L946.358 674H994.234H1042.11V670.5V667L995.859 666.996L949.609 666.991L941.152 652.246C936.501 644.136 931.151 634.842 929.262 631.593L925.829 625.686L924.437 628.343C922.699 631.661 921.978 631.669 919.993 628.397L918.414 625.794L909.707 640.831ZM445.359 672.072C444.121 672.547 443.109 673.402 443.109 673.972C443.109 675.724 461.396 707.173 462.708 707.676C463.386 707.936 465.081 708.003 466.475 707.825C468.957 707.507 468.8 707.132 458.99 690C453.478 680.375 448.663 672.21 448.289 671.854C447.915 671.499 446.597 671.597 445.359 672.072Z" fill="url(#paint0_linear_339_1439)" fill-opacity="0.5"/>
<defs>
<linearGradient id="paint0_linear_339_1439" x1="1090.5" y1="-2.12832e-05" x2="424" y2="542" gradientUnits="userSpaceOnUse">
<stop stop-color="#1ABC00"/>
<stop offset="1" stop-color="#1ABC00" stop-opacity="0"/>
</linearGradient>
</defs>
</svg>
