<svg width="146" height="75" viewBox="0 0 146 75" fill="none" xmlns="http://www.w3.org/2000/svg">
<rect width="75" height="75" fill="#FF6600"/>
<path d="M4.70091 63.8493V63.6277C4.70091 62.876 4.81014 62.1789 5.02858 61.5364C5.24702 60.8875 5.56183 60.3254 5.97302 59.8499C6.39063 59.3681 6.89818 58.9954 7.49568 58.732C8.09961 58.4622 8.78063 58.3273 9.53875 58.3273C10.3033 58.3273 10.9843 58.4622 11.5818 58.732C12.1858 58.9954 12.6965 59.3681 13.1141 59.8499C13.5317 60.3254 13.8498 60.8875 14.0682 61.5364C14.2866 62.1789 14.3959 62.876 14.3959 63.6277V63.8493C14.3959 64.601 14.2866 65.2981 14.0682 65.9406C13.8498 66.5831 13.5317 67.1452 13.1141 67.6271C12.6965 68.1025 12.189 68.4752 11.5915 68.745C10.994 69.0084 10.3161 69.1401 9.55803 69.1401C8.79348 69.1401 8.10925 69.0084 7.50532 68.745C6.90782 68.4752 6.40026 68.1025 5.98265 67.6271C5.56504 67.1452 5.24702 66.5831 5.02858 65.9406C4.81014 65.2981 4.70091 64.601 4.70091 63.8493ZM7.02346 63.6277V63.8493C7.02346 64.3184 7.07165 64.7617 7.16802 65.1793C7.26439 65.5969 7.41537 65.9631 7.62097 66.2779C7.82656 66.5927 8.08997 66.8401 8.41121 67.02C8.73245 67.1999 9.11472 67.2898 9.55803 67.2898C9.98849 67.2898 10.3611 67.1999 10.6759 67.02C10.9972 66.8401 11.2606 66.5927 11.4662 66.2779C11.6718 65.9631 11.8228 65.5969 11.9191 65.1793C12.0219 64.7617 12.0733 64.3184 12.0733 63.8493V63.6277C12.0733 63.1651 12.0219 62.7282 11.9191 62.317C11.8228 61.8994 11.6686 61.53 11.4565 61.2088C11.251 60.8875 10.9875 60.637 10.6663 60.4571C10.3515 60.2708 9.97564 60.1776 9.53875 60.1776C9.10187 60.1776 8.72281 60.2708 8.40157 60.4571C8.08676 60.637 7.82656 60.8875 7.62097 61.2088C7.41537 61.53 7.26439 61.8994 7.16802 62.317C7.07165 62.7282 7.02346 63.1651 7.02346 63.6277ZM19.0695 60.5053V68.9474H16.7469V58.52H18.9635L19.0695 60.5053ZM22.2594 58.4526L22.2401 60.6113C22.0988 60.5856 21.9446 60.5663 21.7775 60.5534C21.6169 60.5406 21.4563 60.5342 21.2957 60.5342C20.8973 60.5342 20.5472 60.592 20.2452 60.7076C19.9433 60.8169 19.6895 60.9775 19.4839 61.1895C19.2847 61.3951 19.1305 61.6457 19.0213 61.9412C18.9121 62.2367 18.8478 62.5676 18.8286 62.9338L18.2985 62.9724C18.2985 62.317 18.3628 61.7099 18.4913 61.1509C18.6198 60.592 18.8125 60.1005 19.0695 59.6765C19.3329 59.2524 19.6606 58.9216 20.0525 58.6838C20.4508 58.4461 20.9102 58.3273 21.4306 58.3273C21.5719 58.3273 21.7229 58.3401 21.8835 58.3658C22.0506 58.3915 22.1759 58.4204 22.2594 58.4526ZM29.641 66.8561V61.8834C29.641 61.5107 29.5736 61.1895 29.4387 60.9197C29.3037 60.6498 29.0981 60.441 28.8219 60.2932C28.552 60.1455 28.2115 60.0716 27.8003 60.0716C27.4213 60.0716 27.0936 60.1358 26.8174 60.2643C26.5411 60.3928 26.3259 60.5663 26.1717 60.7847C26.0175 61.0032 25.9404 61.2505 25.9404 61.5268H23.6275C23.6275 61.1156 23.7271 60.7173 23.9262 60.3318C24.1254 59.9463 24.4145 59.6026 24.7936 59.3006C25.1726 58.9987 25.6256 58.7609 26.1524 58.5875C26.6792 58.414 27.2703 58.3273 27.9256 58.3273C28.7094 58.3273 29.4033 58.459 30.0072 58.7224C30.6176 58.9858 31.0962 59.3841 31.4432 59.9174C31.7965 60.4442 31.9732 61.106 31.9732 61.9026V66.5381C31.9732 67.0135 32.0053 67.4408 32.0696 67.8198C32.1403 68.1925 32.2398 68.5169 32.3683 68.7932V68.9474H29.988C29.8788 68.6968 29.792 68.3788 29.7278 67.9933C29.6699 67.6014 29.641 67.2223 29.641 66.8561ZM29.9783 62.6062L29.9976 64.0421H28.3304C27.8999 64.0421 27.5209 64.0838 27.1932 64.1674C26.8655 64.2445 26.5925 64.3601 26.374 64.5143C26.1556 64.6685 25.9918 64.8548 25.8826 65.0733C25.7733 65.2917 25.7187 65.5391 25.7187 65.8153C25.7187 66.0916 25.783 66.3454 25.9115 66.5767C26.04 66.8015 26.2263 66.9782 26.4704 67.1067C26.721 67.2352 27.0229 67.2994 27.3763 67.2994C27.8517 67.2994 28.2661 67.2031 28.6195 67.0103C28.9793 66.8112 29.262 66.5702 29.4676 66.2875C29.6732 65.9984 29.7824 65.7254 29.7952 65.4684L30.5469 66.4996C30.4698 66.763 30.3381 67.0457 30.1518 67.3476C29.9655 67.6496 29.7213 67.9387 29.4194 68.215C29.1238 68.4848 28.7673 68.7065 28.3497 68.8799C27.9385 69.0534 27.463 69.1401 26.9234 69.1401C26.2423 69.1401 25.6352 69.0052 25.1019 68.7354C24.5687 68.4591 24.1511 68.0897 23.8491 67.6271C23.5472 67.1581 23.3962 66.6281 23.3962 66.037C23.3962 65.4844 23.499 64.9962 23.7046 64.5721C23.9166 64.1417 24.225 63.7819 24.6297 63.4928C25.0409 63.2037 25.542 62.9852 26.1331 62.8374C26.7242 62.6833 27.3988 62.6062 28.1569 62.6062H29.9783ZM37.0998 60.7462V68.9474H34.7772V58.52H36.9649L37.0998 60.7462ZM36.6854 63.3482L35.9337 63.3386C35.9401 62.5997 36.0429 61.9219 36.2421 61.3051C36.4477 60.6884 36.7304 60.1583 37.0902 59.715C37.4564 59.2717 37.8932 58.9312 38.4008 58.6935C38.9084 58.4493 39.4737 58.3273 40.0969 58.3273C40.5981 58.3273 41.051 58.3979 41.4558 58.5393C41.867 58.6742 42.2171 58.8959 42.5062 59.2042C42.8018 59.5126 43.0266 59.9142 43.1808 60.4089C43.335 60.8972 43.4121 61.4979 43.4121 62.211V68.9474H41.0799V62.2014C41.0799 61.7003 41.006 61.3051 40.8583 61.016C40.7169 60.7205 40.5081 60.5117 40.2319 60.3896C39.962 60.2611 39.6247 60.1969 39.22 60.1969C38.8216 60.1969 38.4651 60.2804 38.1502 60.4474C37.8354 60.6145 37.5688 60.8426 37.3504 61.1317C37.1383 61.4208 36.9745 61.7549 36.8589 62.1339C36.7432 62.513 36.6854 62.9178 36.6854 63.3482ZM52.8561 58.52H54.9666V68.6583C54.9666 69.5963 54.7675 70.393 54.3691 71.0483C53.9708 71.7036 53.4151 72.2015 52.7019 72.542C51.9888 72.889 51.1632 73.0624 50.2252 73.0624C49.8268 73.0624 49.3835 73.0046 48.8953 72.889C48.4134 72.7733 47.9444 72.587 47.4882 72.33C47.0385 72.0795 46.6627 71.7486 46.3607 71.3374L47.4497 69.9689C47.8223 70.4122 48.2335 70.7367 48.6832 70.9423C49.133 71.1479 49.6052 71.2507 50.0999 71.2507C50.6331 71.2507 51.0861 71.1511 51.4587 70.9519C51.8378 70.7592 52.1301 70.4733 52.3357 70.0942C52.5413 69.7151 52.6441 69.2526 52.6441 68.7065V60.8811L52.8561 58.52ZM45.7728 63.8493V63.647C45.7728 62.8567 45.8692 62.1371 46.0619 61.4882C46.2547 60.8329 46.5309 60.2708 46.8907 59.8018C47.2505 59.3263 47.6874 58.9633 48.2014 58.7128C48.7154 58.4558 49.2968 58.3273 49.9457 58.3273C50.6203 58.3273 51.1953 58.4493 51.6707 58.6935C52.1526 58.9376 52.5542 59.2878 52.8754 59.7439C53.1966 60.1937 53.4472 60.7333 53.6271 61.363C53.8134 61.9862 53.9515 62.68 54.0415 63.4446V64.0903C53.958 64.8355 53.8166 65.5166 53.6174 66.1333C53.4183 66.7501 53.1549 67.2834 52.8272 67.7331C52.4995 68.1828 52.0948 68.5298 51.6129 68.7739C51.1375 69.0181 50.5753 69.1401 49.9264 69.1401C49.2904 69.1401 48.7154 69.0084 48.2014 68.745C47.6938 68.4816 47.2569 68.1122 46.8907 67.6367C46.5309 67.1613 46.2547 66.6024 46.0619 65.9599C45.8692 65.311 45.7728 64.6075 45.7728 63.8493ZM48.0954 63.647V63.8493C48.0954 64.3248 48.1403 64.7681 48.2303 65.1793C48.3267 65.5905 48.4712 65.9535 48.664 66.2683C48.8631 66.5767 49.1137 66.8208 49.4157 67.0007C49.724 67.1742 50.087 67.2609 50.5047 67.2609C51.0508 67.2609 51.4973 67.1452 51.8442 66.914C52.1976 66.6827 52.4674 66.3711 52.6537 65.9792C52.8465 65.5808 52.9814 65.1375 53.0585 64.6492V62.9049C53.0199 62.5258 52.9396 62.1725 52.8176 61.8448C52.7019 61.5172 52.5445 61.2313 52.3453 60.9871C52.1462 60.7366 51.8956 60.5438 51.5936 60.4089C51.2917 60.2675 50.9351 60.1969 50.5239 60.1969C50.1063 60.1969 49.7433 60.2868 49.4349 60.4667C49.1265 60.6466 48.8728 60.894 48.6736 61.2088C48.4809 61.5236 48.3363 61.8898 48.2399 62.3074C48.1436 62.725 48.0954 63.1715 48.0954 63.647ZM62.3676 69.1401C61.5966 69.1401 60.8995 69.0148 60.2763 68.7643C59.6595 68.5073 59.1327 68.1507 58.6958 67.6946C58.2654 67.2384 57.9345 66.7019 57.7032 66.0852C57.4719 65.4684 57.3563 64.8034 57.3563 64.0903V63.7048C57.3563 62.8888 57.4751 62.15 57.7128 61.4882C57.9506 60.8265 58.2814 60.2611 58.7055 59.7921C59.1295 59.3167 59.6306 58.9537 60.2089 58.7031C60.7871 58.4526 61.4135 58.3273 62.0881 58.3273C62.8334 58.3273 63.4855 58.4526 64.0444 58.7031C64.6034 58.9537 65.066 59.307 65.4322 59.7632C65.8048 60.2129 66.0811 60.7494 66.261 61.3726C66.4473 61.9958 66.5405 62.6833 66.5405 63.4349V64.4276H58.4838V62.7603H64.2468V62.5772C64.234 62.1596 64.1504 61.7677 63.9963 61.4015C63.8485 61.0353 63.6204 60.7398 63.312 60.5149C63.0036 60.29 62.5924 60.1776 62.0785 60.1776C61.693 60.1776 61.3493 60.2611 61.0473 60.4282C60.7518 60.5888 60.5044 60.8233 60.3052 61.1317C60.1061 61.4401 59.9519 61.8127 59.8426 62.2496C59.7399 62.68 59.6885 63.1651 59.6885 63.7048V64.0903C59.6885 64.5464 59.7495 64.9705 59.8716 65.3624C60.0001 65.7479 60.1864 66.0852 60.4305 66.3743C60.6747 66.6634 60.9702 66.8915 61.3171 67.0585C61.6641 67.2191 62.0592 67.2994 62.5025 67.2994C63.0614 67.2994 63.5594 67.187 63.9963 66.9621C64.4331 66.7373 64.8122 66.4192 65.1334 66.0081L66.3573 67.1934C66.1325 67.5211 65.8402 67.8359 65.4804 68.1379C65.1206 68.4334 64.6805 68.6743 64.1601 68.8607C63.6461 69.047 63.0486 69.1401 62.3676 69.1401Z" fill="white"/>
<path d="M66.466 55.0534V58.421H65.8901V55.0534H66.466ZM67.523 55.0534V55.516H64.8424V55.0534H67.523ZM68.5978 55.0534H69.1159L70.0896 57.6508L71.061 55.0534H71.5791L70.2931 58.421H69.8814L68.5978 55.0534ZM68.3618 55.0534H68.8545L68.9401 57.3016V58.421H68.3618V55.0534ZM71.3224 55.0534H71.8173V58.421H71.2368V57.3016L71.3224 55.0534Z" fill="white"/>
<path d="M92.44 14.2065V14.9293C92.44 15.9894 92.2987 16.9435 92.016 17.7915C91.7333 18.6332 91.3317 19.3495 90.8113 19.9406C90.2909 20.5317 89.671 20.9846 88.9514 21.2994C88.2318 21.6143 87.4319 21.7717 86.5517 21.7717C85.6844 21.7717 84.8877 21.6143 84.1617 21.2994C83.4422 20.9846 82.819 20.5317 82.2921 19.9406C81.7653 19.3495 81.3573 18.6332 81.0682 17.7915C80.7791 16.9435 80.6345 15.9894 80.6345 14.9293V14.2065C80.6345 13.14 80.7791 12.1859 81.0682 11.3443C81.3573 10.5026 81.7621 9.78628 82.2825 9.19521C82.8029 8.5977 83.4229 8.14155 84.1424 7.82673C84.8684 7.51192 85.6651 7.35451 86.5325 7.35451C87.4126 7.35451 88.2125 7.51192 88.9321 7.82673C89.6517 8.14155 90.2717 8.5977 90.7921 9.19521C91.3189 9.78628 91.7237 10.5026 92.0063 11.3443C92.2955 12.1859 92.44 13.14 92.44 14.2065ZM89.7609 14.9293V14.1872C89.7609 13.4227 89.6902 12.7513 89.5489 12.1731C89.4075 11.5884 89.1987 11.0969 88.9225 10.6986C88.6462 10.3003 88.3057 10.0015 87.9009 9.80235C87.4962 9.59675 87.04 9.49396 86.5325 9.49396C86.0185 9.49396 85.5623 9.59675 85.164 9.80235C84.7721 10.0015 84.438 10.3003 84.1617 10.6986C83.8855 11.0969 83.6734 11.5884 83.5257 12.1731C83.3843 12.7513 83.3137 13.4227 83.3137 14.1872V14.9293C83.3137 15.6874 83.3843 16.3588 83.5257 16.9435C83.6734 17.5281 83.8855 18.0228 84.1617 18.4276C84.4444 18.8259 84.7849 19.1279 85.1833 19.3335C85.5816 19.5391 86.0378 19.6419 86.5517 19.6419C87.0657 19.6419 87.5219 19.5391 87.9202 19.3335C88.3185 19.1279 88.6526 18.8259 88.9225 18.4276C89.1987 18.0228 89.4075 17.5281 89.5489 16.9435C89.6902 16.3588 89.7609 15.6874 89.7609 14.9293ZM97.4317 13.2813V21.5789H94.8875V11.1515H97.2967L97.4317 13.2813ZM100.602 11.0841L100.564 13.4548C100.422 13.4291 100.262 13.4098 100.082 13.397C99.9084 13.3841 99.7446 13.3777 99.5904 13.3777C99.1985 13.3777 98.8548 13.4323 98.5592 13.5416C98.2637 13.6443 98.0163 13.7953 97.8172 13.9945C97.6244 14.1937 97.4766 14.4378 97.3738 14.7269C97.271 15.0096 97.2132 15.3308 97.2004 15.6906L96.6511 15.6232C96.6511 14.9614 96.7185 14.3479 96.8534 13.7825C96.9884 13.2171 97.1843 12.7224 97.4413 12.2984C97.6983 11.8743 98.0195 11.5467 98.405 11.3154C98.7969 11.0777 99.2467 10.9588 99.7542 10.9588C99.8956 10.9588 100.047 10.9717 100.207 10.9973C100.374 11.0166 100.506 11.0455 100.602 11.0841ZM107.81 19.3624V14.5535C107.81 14.2001 107.749 13.8949 107.627 13.6379C107.505 13.3809 107.319 13.1818 107.068 13.0404C106.818 12.8991 106.5 12.8284 106.114 12.8284C105.774 12.8284 105.475 12.8862 105.218 13.0019C104.968 13.1175 104.775 13.2813 104.64 13.4934C104.505 13.699 104.437 13.9367 104.437 14.2065H101.884C101.884 13.7761 101.986 13.3681 102.192 12.9826C102.398 12.5907 102.69 12.2438 103.069 11.9418C103.454 11.6334 103.914 11.3925 104.447 11.219C104.987 11.0455 105.591 10.9588 106.259 10.9588C107.049 10.9588 107.753 11.0937 108.369 11.3636C108.993 11.627 109.481 12.0253 109.834 12.5586C110.194 13.0918 110.374 13.7632 110.374 14.5727V19.1215C110.374 19.6419 110.406 20.0884 110.47 20.461C110.541 20.8272 110.644 21.1452 110.779 21.4151V21.5789H108.186C108.064 21.3155 107.971 20.9814 107.907 20.5767C107.843 20.1655 107.81 19.7607 107.81 19.3624ZM108.167 15.228L108.186 16.7411H106.577C106.179 16.7411 105.828 16.7828 105.526 16.8664C105.225 16.9435 104.977 17.0591 104.784 17.2133C104.592 17.3611 104.447 17.541 104.351 17.753C104.254 17.9586 104.206 18.1931 104.206 18.4565C104.206 18.7135 104.264 18.9448 104.38 19.1504C104.502 19.356 104.675 19.5198 104.9 19.6419C105.131 19.7575 105.401 19.8153 105.71 19.8153C106.159 19.8153 106.551 19.7254 106.885 19.5455C107.219 19.3592 107.48 19.1343 107.666 18.8709C107.852 18.6075 107.952 18.3569 107.965 18.1192L108.697 19.2178C108.607 19.4812 108.472 19.7607 108.292 20.0563C108.112 20.3518 107.881 20.6281 107.598 20.885C107.316 21.142 106.975 21.3541 106.577 21.5211C106.179 21.6881 105.716 21.7717 105.189 21.7717C104.515 21.7717 103.911 21.6367 103.377 21.3669C102.844 21.0971 102.423 20.7276 102.115 20.2586C101.807 19.7896 101.652 19.2564 101.652 18.6589C101.652 18.1063 101.755 17.6181 101.961 17.194C102.166 16.77 102.471 16.4134 102.876 16.1243C103.281 15.8288 103.782 15.6071 104.38 15.4593C104.984 15.3051 105.674 15.228 106.452 15.228H108.167ZM115.558 13.3777V21.5789H113.014V11.1515H115.404L115.558 13.3777ZM115.154 15.9894H114.402C114.408 15.2313 114.511 14.5438 114.71 13.927C114.909 13.3103 115.189 12.7802 115.549 12.3369C115.915 11.8936 116.349 11.5531 116.85 11.3154C117.351 11.0777 117.91 10.9588 118.527 10.9588C119.028 10.9588 119.481 11.0295 119.885 11.1708C120.29 11.3122 120.637 11.537 120.926 11.8454C121.222 12.1538 121.447 12.5586 121.601 13.0597C121.761 13.5544 121.842 14.1648 121.842 14.8907V21.5789H119.278V14.8715C119.278 14.396 119.208 14.0202 119.066 13.7439C118.931 13.4677 118.732 13.2717 118.469 13.1561C118.212 13.0404 117.894 12.9826 117.515 12.9826C117.123 12.9826 116.779 13.0629 116.484 13.2235C116.194 13.3777 115.95 13.5929 115.751 13.8692C115.558 14.1455 115.411 14.4635 115.308 14.8233C115.205 15.1831 115.154 15.5718 115.154 15.9894ZM131.112 11.1515H133.425V21.2609C133.425 22.2053 133.22 23.0052 132.808 23.6605C132.404 24.3223 131.835 24.8234 131.103 25.1639C130.37 25.5109 129.519 25.6843 128.549 25.6843C128.131 25.6843 127.678 25.6265 127.19 25.5109C126.708 25.3952 126.242 25.2121 125.793 24.9616C125.349 24.7174 124.98 24.3994 124.684 24.0075L125.831 22.5041C126.178 22.9088 126.57 23.214 127.007 23.4196C127.444 23.6316 127.916 23.7376 128.424 23.7376C128.938 23.7376 129.374 23.6413 129.734 23.4485C130.1 23.2622 130.38 22.9859 130.573 22.6197C130.772 22.2599 130.871 21.8166 130.871 21.2898V13.5319L131.112 11.1515ZM124.068 16.4905V16.2881C124.068 15.4915 124.164 14.7687 124.357 14.1198C124.549 13.4645 124.826 12.9023 125.185 12.4333C125.552 11.9643 125.992 11.6013 126.506 11.3443C127.026 11.0873 127.611 10.9588 128.26 10.9588C128.947 10.9588 129.525 11.0841 129.994 11.3346C130.47 11.5852 130.862 11.9418 131.17 12.4044C131.485 12.867 131.729 13.4163 131.903 14.0523C132.082 14.6819 132.221 15.3758 132.317 16.1339V16.6833C132.227 17.4221 132.082 18.0999 131.883 18.7167C131.691 19.3335 131.434 19.8731 131.112 20.3357C130.791 20.7919 130.393 21.1452 129.917 21.3958C129.442 21.6464 128.883 21.7717 128.24 21.7717C127.598 21.7717 127.02 21.64 126.506 21.3765C125.992 21.1131 125.552 20.7437 125.185 20.2683C124.826 19.7928 124.549 19.2339 124.357 18.5914C124.164 17.9489 124.068 17.2486 124.068 16.4905ZM126.612 16.2881V16.4905C126.612 16.9402 126.657 17.3611 126.747 17.753C126.837 18.1449 126.975 18.4918 127.161 18.7938C127.347 19.0893 127.582 19.3206 127.865 19.4877C128.147 19.6547 128.485 19.7382 128.876 19.7382C129.403 19.7382 129.834 19.629 130.168 19.4106C130.508 19.1857 130.765 18.8805 130.939 18.495C131.119 18.1031 131.234 17.663 131.286 17.1747V15.6617C131.254 15.2762 131.183 14.9197 131.074 14.592C130.971 14.2643 130.826 13.9816 130.64 13.7439C130.454 13.5062 130.216 13.3199 129.927 13.185C129.638 13.0501 129.294 12.9826 128.896 12.9826C128.51 12.9826 128.173 13.0693 127.884 13.2428C127.595 13.4098 127.357 13.6443 127.171 13.9463C126.984 14.2483 126.843 14.5984 126.747 14.9968C126.657 15.3951 126.612 15.8256 126.612 16.2881ZM140.797 21.7717C140.007 21.7717 139.297 21.6432 138.667 21.3862C138.038 21.1292 137.501 20.7726 137.058 20.3165C136.621 19.8539 136.284 19.3174 136.046 18.7071C135.815 18.0903 135.699 17.4285 135.699 16.7218V16.3363C135.699 15.5332 135.815 14.804 136.046 14.1487C136.277 13.4869 136.605 12.9184 137.029 12.4429C137.453 11.9675 137.961 11.6013 138.552 11.3443C139.143 11.0873 139.795 10.9588 140.508 10.9588C141.247 10.9588 141.899 11.0841 142.464 11.3346C143.03 11.5788 143.502 11.9257 143.881 12.3755C144.26 12.8252 144.546 13.3649 144.739 13.9945C144.932 14.6177 145.028 15.3084 145.028 16.0665V17.1362H136.856V15.3822H142.522V15.1895C142.509 14.7847 142.432 14.4153 142.291 14.0812C142.15 13.7407 141.931 13.4709 141.636 13.2717C141.34 13.0661 140.958 12.9633 140.489 12.9633C140.11 12.9633 139.779 13.0468 139.496 13.2139C139.22 13.3745 138.989 13.6058 138.802 13.9078C138.622 14.2033 138.488 14.5567 138.398 14.9678C138.308 15.379 138.263 15.8352 138.263 16.3363V16.7218C138.263 17.1587 138.32 17.5634 138.436 17.9361C138.558 18.3087 138.735 18.6332 138.966 18.9094C139.204 19.1793 139.487 19.3913 139.814 19.5455C140.148 19.6933 140.527 19.7671 140.951 19.7671C141.485 19.7671 141.967 19.6643 142.397 19.4587C142.834 19.2467 143.213 18.9351 143.534 18.5239L144.816 19.8539C144.597 20.1751 144.302 20.4835 143.929 20.779C143.563 21.0746 143.12 21.3155 142.599 21.5018C142.079 21.6817 141.478 21.7717 140.797 21.7717Z" fill="black"/>
<path d="M85.27 45.2632H82.2439L82.2632 43.1816H85.27C86.0859 43.1816 86.7702 43.0017 87.3227 42.6419C87.8752 42.2757 88.2928 41.7521 88.5755 41.071C88.8582 40.3836 88.9996 39.5612 88.9996 38.6039V37.8811C88.9996 37.1423 88.9193 36.4902 88.7586 35.9248C88.598 35.3594 88.3603 34.884 88.0455 34.4985C87.7371 34.113 87.3548 33.8207 86.8987 33.6215C86.4425 33.4224 85.9189 33.3228 85.3278 33.3228H82.1861V31.2315H85.3278C86.2658 31.2315 87.1203 31.3889 87.8913 31.7037C88.6687 32.0186 89.3401 32.4715 89.9055 33.0626C90.4773 33.6472 90.9141 34.3475 91.2161 35.1635C91.5245 35.9794 91.6787 36.8917 91.6787 37.9004V38.6039C91.6787 39.6062 91.5245 40.5185 91.2161 41.3409C90.9141 42.1568 90.4773 42.8571 89.9055 43.4418C89.3401 44.0264 88.6655 44.4762 87.8817 44.791C87.0978 45.1058 86.2273 45.2632 85.27 45.2632ZM83.7281 31.2315V45.2632H81.0778V31.2315H83.7281ZM96.8342 34.8358V45.2632H94.2803V34.8358H96.8342ZM94.1069 32.1085C94.1069 31.7294 94.2354 31.4146 94.4923 31.1641C94.7558 30.9135 95.1091 30.7882 95.5524 30.7882C95.9957 30.7882 96.3459 30.9135 96.6029 31.1641C96.8663 31.4146 96.998 31.7294 96.998 32.1085C96.998 32.4811 96.8663 32.7927 96.6029 33.0433C96.3459 33.2939 95.9957 33.4192 95.5524 33.4192C95.1091 33.4192 94.7558 33.2939 94.4923 33.0433C94.2354 32.7927 94.1069 32.4811 94.1069 32.1085ZM106.288 34.8358H108.601V44.9452C108.601 45.8896 108.395 46.6895 107.984 47.3448C107.579 48.0066 107.011 48.5077 106.278 48.8482C105.546 49.1951 104.694 49.3686 103.724 49.3686C103.307 49.3686 102.854 49.3108 102.365 49.1951C101.884 49.0795 101.418 48.8964 100.968 48.6458C100.525 48.4017 100.155 48.0837 99.8598 47.6917L101.007 46.1883C101.354 46.5931 101.746 46.8983 102.182 47.1039C102.619 47.3159 103.091 47.4219 103.599 47.4219C104.113 47.4219 104.55 47.3255 104.91 47.1328C105.276 46.9465 105.555 46.6702 105.748 46.304C105.947 45.9442 106.047 45.5009 106.047 44.9741V37.2162L106.288 34.8358ZM99.2431 40.1748V39.9724C99.2431 39.1757 99.3394 38.4529 99.5322 37.804C99.7249 37.1487 100.001 36.5866 100.361 36.1175C100.727 35.6485 101.167 35.2855 101.681 35.0286C102.202 34.7716 102.786 34.6431 103.435 34.6431C104.123 34.6431 104.701 34.7683 105.17 35.0189C105.645 35.2695 106.037 35.6261 106.346 36.0886C106.66 36.5512 106.905 37.1005 107.078 37.7366C107.258 38.3662 107.396 39.0601 107.492 39.8182V40.3675C107.403 41.1064 107.258 41.7842 107.059 42.401C106.866 43.0177 106.609 43.5574 106.288 44.02C105.967 44.4762 105.568 44.8295 105.093 45.0801C104.617 45.3306 104.058 45.4559 103.416 45.4559C102.773 45.4559 102.195 45.3242 101.681 45.0608C101.167 44.7974 100.727 44.428 100.361 43.9525C100.001 43.4771 99.7249 42.9181 99.5322 42.2757C99.3394 41.6332 99.2431 40.9329 99.2431 40.1748ZM101.787 39.9724V40.1748C101.787 40.6245 101.832 41.0453 101.922 41.4372C102.012 41.8292 102.15 42.1761 102.337 42.4781C102.523 42.7736 102.757 43.0049 103.04 43.1719C103.323 43.339 103.66 43.4225 104.052 43.4225C104.579 43.4225 105.009 43.3133 105.343 43.0948C105.684 42.87 105.941 42.5648 106.114 42.1793C106.294 41.7874 106.41 41.3473 106.461 40.859V39.346C106.429 38.9605 106.358 38.6039 106.249 38.2763C106.146 37.9486 106.002 37.6659 105.816 37.4282C105.629 37.1905 105.392 37.0042 105.102 36.8692C104.813 36.7343 104.47 36.6669 104.071 36.6669C103.686 36.6669 103.348 36.7536 103.059 36.9271C102.77 37.0941 102.533 37.3286 102.346 37.6306C102.16 37.9325 102.019 38.2827 101.922 38.681C101.832 39.0794 101.787 39.5098 101.787 39.9724ZM113.987 34.8358V45.2632H111.434V34.8358H113.987ZM111.26 32.1085C111.26 31.7294 111.389 31.4146 111.646 31.1641C111.909 30.9135 112.262 30.7882 112.706 30.7882C113.149 30.7882 113.499 30.9135 113.756 31.1641C114.02 31.4146 114.151 31.7294 114.151 32.1085C114.151 32.4811 114.02 32.7927 113.756 33.0433C113.499 33.2939 113.149 33.4192 112.706 33.4192C112.262 33.4192 111.909 33.2939 111.646 33.0433C111.389 32.7927 111.26 32.4811 111.26 32.1085ZM121.745 34.8358V36.6669H115.77V34.8358H121.745ZM117.37 32.2723H119.924V42.2564C119.924 42.5648 119.965 42.8025 120.049 42.9695C120.132 43.1366 120.258 43.249 120.425 43.3068C120.592 43.3647 120.791 43.3936 121.022 43.3936C121.189 43.3936 121.343 43.3839 121.485 43.3647C121.626 43.3454 121.745 43.3261 121.841 43.3068L121.851 45.215C121.639 45.2857 121.398 45.3435 121.128 45.3885C120.865 45.4334 120.566 45.4559 120.232 45.4559C119.66 45.4559 119.159 45.3596 118.729 45.1668C118.298 44.9676 117.964 44.6496 117.726 44.2127C117.489 43.7694 117.37 43.1848 117.37 42.4588V32.2723ZM129.58 43.0466V38.2377C129.58 37.8844 129.519 37.5792 129.396 37.3222C129.274 37.0652 129.088 36.866 128.838 36.7247C128.587 36.5833 128.269 36.5127 127.883 36.5127C127.543 36.5127 127.244 36.5705 126.987 36.6861C126.737 36.8018 126.544 36.9656 126.409 37.1776C126.274 37.3832 126.207 37.6209 126.207 37.8908H123.653C123.653 37.4603 123.756 37.0523 123.961 36.6669C124.167 36.275 124.459 35.928 124.838 35.6261C125.224 35.3177 125.683 35.0767 126.216 34.9033C126.756 34.7298 127.36 34.6431 128.028 34.6431C128.818 34.6431 129.522 34.778 130.139 35.0478C130.762 35.3112 131.25 35.7096 131.603 36.2428C131.963 36.7761 132.143 37.4475 132.143 38.257V42.8057C132.143 43.3261 132.175 43.7726 132.239 44.1453C132.31 44.5115 132.413 44.8295 132.548 45.0994V45.2632H129.955C129.833 44.9998 129.74 44.6657 129.676 44.2609C129.612 43.8497 129.58 43.445 129.58 43.0466ZM129.936 38.9123L129.955 40.4253H128.346C127.948 40.4253 127.598 40.4671 127.296 40.5506C126.994 40.6277 126.746 40.7434 126.554 40.8976C126.361 41.0453 126.216 41.2252 126.12 41.4372C126.023 41.6428 125.975 41.8773 125.975 42.1408C125.975 42.3977 126.033 42.629 126.149 42.8346C126.271 43.0402 126.444 43.2041 126.669 43.3261C126.9 43.4418 127.17 43.4996 127.479 43.4996C127.928 43.4996 128.32 43.4096 128.654 43.2297C128.989 43.0434 129.249 42.8186 129.435 42.5551C129.621 42.2917 129.721 42.0412 129.734 41.8035L130.466 42.9021C130.376 43.1655 130.241 43.445 130.061 43.7405C129.882 44.0361 129.65 44.3123 129.368 44.5693C129.085 44.8263 128.744 45.0383 128.346 45.2054C127.948 45.3724 127.485 45.4559 126.958 45.4559C126.284 45.4559 125.68 45.321 125.147 45.0512C124.613 44.7813 124.192 44.4119 123.884 43.9429C123.576 43.4739 123.421 42.9406 123.421 42.3431C123.421 41.7906 123.524 41.3023 123.73 40.8783C123.935 40.4543 124.241 40.0977 124.645 39.8086C125.05 39.513 125.551 39.2914 126.149 39.1436C126.753 38.9894 127.443 38.9123 128.221 38.9123H129.936ZM137.53 30.4606V45.2632H134.976V30.4606H137.53Z" fill="black"/>
<path d="M89.2887 64.3312H91.9389C91.8682 65.2692 91.608 66.1012 91.1583 66.8272C90.7085 67.5468 90.0821 68.1122 89.279 68.5234C88.4759 68.9345 87.5026 69.1401 86.359 69.1401C85.4788 69.1401 84.6853 68.9859 83.9786 68.6775C83.2783 68.3627 82.6776 67.9162 82.1765 67.338C81.6818 66.7533 81.3027 66.053 81.0393 65.2371C80.7759 64.4147 80.6442 63.4928 80.6442 62.4712V61.4015C80.6442 60.38 80.7791 59.458 81.0489 58.6357C81.3188 57.8133 81.7043 57.113 82.2054 56.5348C82.7129 55.9501 83.3201 55.5004 84.0268 55.1856C84.74 54.8708 85.5366 54.7133 86.4168 54.7133C87.5604 54.7133 88.5273 54.9254 89.3176 55.3494C90.1078 55.767 90.7214 56.342 91.1583 57.0744C91.5952 57.8069 91.8586 58.6485 91.9485 59.5994H89.2983C89.2469 59.0083 89.1184 58.5072 88.9128 58.096C88.7137 57.6848 88.4117 57.3732 88.0069 57.1612C87.6086 56.9427 87.0786 56.8335 86.4168 56.8335C85.9028 56.8335 85.4499 56.9299 85.058 57.1226C84.6725 57.3154 84.3513 57.6045 84.0943 57.99C83.8373 58.369 83.6445 58.8445 83.516 59.4163C83.3875 59.9816 83.3233 60.637 83.3233 61.3822V62.4712C83.3233 63.1844 83.3811 63.8236 83.4968 64.389C83.6124 64.9544 83.7923 65.433 84.0364 65.825C84.2806 66.2169 84.5954 66.5156 84.9809 66.7212C85.3664 66.9268 85.8257 67.0296 86.359 67.0296C87.0079 67.0296 87.5347 66.9268 87.9395 66.7212C88.3507 66.5156 88.6623 66.2137 88.8743 65.8153C89.0927 65.417 89.2309 64.9223 89.2887 64.3312ZM98.8772 69.1401C98.087 69.1401 97.3771 69.0116 96.7474 68.7546C96.1178 68.4977 95.5813 68.1411 95.138 67.6849C94.7011 67.2223 94.3638 66.6859 94.1261 66.0755C93.8948 65.4587 93.7792 64.797 93.7792 64.0903V63.7048C93.7792 62.9017 93.8948 62.1725 94.1261 61.5172C94.3574 60.8554 94.6851 60.2868 95.1091 59.8114C95.5332 59.336 96.0407 58.9697 96.6318 58.7128C97.2229 58.4558 97.875 58.3273 98.5881 58.3273C99.327 58.3273 99.9791 58.4526 100.544 58.7031C101.11 58.9473 101.582 59.2942 101.961 59.7439C102.34 60.1937 102.626 60.7333 102.819 61.363C103.012 61.9862 103.108 62.6768 103.108 63.4349V64.5047H94.9357V62.7507H100.602V62.558C100.589 62.1532 100.512 61.7838 100.371 61.4497C100.23 61.1092 100.011 60.8393 99.7157 60.6402C99.4201 60.4346 99.0379 60.3318 98.5688 60.3318C98.1898 60.3318 97.8589 60.4153 97.5762 60.5824C97.3 60.743 97.0687 60.9743 96.8824 61.2762C96.7025 61.5718 96.5675 61.9251 96.4776 62.3363C96.3876 62.7475 96.3427 63.2037 96.3427 63.7048V64.0903C96.3427 64.5272 96.4005 64.9319 96.5161 65.3046C96.6382 65.6772 96.8149 66.0016 97.0462 66.2779C97.2839 66.5477 97.5666 66.7598 97.8942 66.914C98.2283 67.0617 98.6074 67.1356 99.0314 67.1356C99.5647 67.1356 100.047 67.0328 100.477 66.8272C100.914 66.6152 101.293 66.3036 101.614 65.8924L102.896 67.2223C102.677 67.5436 102.382 67.852 102.009 68.1475C101.643 68.443 101.2 68.684 100.679 68.8703C100.159 69.0502 99.5583 69.1401 98.8772 69.1401ZM107.704 60.7462V68.9474H105.16V58.52H107.55L107.704 60.7462ZM107.3 63.3579H106.548C106.554 62.5997 106.657 61.9123 106.856 61.2955C107.056 60.6787 107.335 60.1487 107.695 59.7054C108.061 59.2621 108.495 58.9216 108.996 58.6838C109.497 58.4461 110.056 58.3273 110.673 58.3273C111.174 58.3273 111.627 58.3979 112.032 58.5393C112.436 58.6806 112.783 58.9055 113.072 59.2139C113.368 59.5223 113.593 59.927 113.747 60.4282C113.908 60.9229 113.988 61.5332 113.988 62.2592V68.9474H111.424V62.2399C111.424 61.7645 111.354 61.3887 111.212 61.1124C111.077 60.8361 110.878 60.6402 110.615 60.5245C110.358 60.4089 110.04 60.3511 109.661 60.3511C109.269 60.3511 108.925 60.4314 108.63 60.592C108.341 60.7462 108.096 60.9614 107.897 61.2377C107.704 61.5139 107.557 61.832 107.454 62.1918C107.351 62.5515 107.3 62.9402 107.3 63.3579ZM121.562 58.52V60.3511H115.587V58.52H121.562ZM117.187 55.9565H119.741V65.9406C119.741 66.249 119.783 66.4867 119.866 66.6538C119.95 66.8208 120.075 66.9332 120.242 66.9911C120.409 67.0489 120.608 67.0778 120.839 67.0778C121.007 67.0778 121.161 67.0681 121.302 67.0489C121.443 67.0296 121.562 67.0103 121.659 66.9911L121.668 68.8992C121.456 68.9699 121.215 69.0277 120.945 69.0727C120.682 69.1176 120.383 69.1401 120.049 69.1401C119.477 69.1401 118.976 69.0438 118.546 68.851C118.115 68.6518 117.781 68.3338 117.544 67.8969C117.306 67.4536 117.187 66.869 117.187 66.143V55.9565ZM128.337 69.1401C127.547 69.1401 126.837 69.0116 126.207 68.7546C125.577 68.4977 125.041 68.1411 124.598 67.6849C124.161 67.2223 123.823 66.6859 123.586 66.0755C123.354 65.4587 123.239 64.797 123.239 64.0903V63.7048C123.239 62.9017 123.354 62.1725 123.586 61.5172C123.817 60.8554 124.145 60.2868 124.569 59.8114C124.993 59.336 125.5 58.9697 126.091 58.7128C126.682 58.4558 127.335 58.3273 128.048 58.3273C128.787 58.3273 129.439 58.4526 130.004 58.7031C130.569 58.9473 131.042 59.2942 131.421 59.7439C131.8 60.1937 132.086 60.7333 132.278 61.363C132.471 61.9862 132.567 62.6768 132.567 63.4349V64.5047H124.395V62.7507H130.062V62.558C130.049 62.1532 129.972 61.7838 129.831 61.4497C129.689 61.1092 129.471 60.8393 129.175 60.6402C128.88 60.4346 128.497 60.3318 128.028 60.3318C127.649 60.3318 127.318 60.4153 127.036 60.5824C126.76 60.743 126.528 60.9743 126.342 61.2762C126.162 61.5718 126.027 61.9251 125.937 62.3363C125.847 62.7475 125.802 63.2037 125.802 63.7048V64.0903C125.802 64.5272 125.86 64.9319 125.976 65.3046C126.098 65.6772 126.274 66.0016 126.506 66.2779C126.743 66.5477 127.026 66.7598 127.354 66.914C127.688 67.0617 128.067 67.1356 128.491 67.1356C129.024 67.1356 129.506 67.0328 129.937 66.8272C130.373 66.6152 130.752 66.3036 131.074 65.8924L132.355 67.2223C132.137 67.5436 131.841 67.852 131.469 68.1475C131.103 68.443 130.659 68.684 130.139 68.8703C129.619 69.0502 129.018 69.1401 128.337 69.1401ZM137.212 60.6498V68.9474H134.668V58.52H137.077L137.212 60.6498ZM140.383 58.4526L140.344 60.8233C140.203 60.7976 140.042 60.7783 139.862 60.7655C139.689 60.7526 139.525 60.7462 139.371 60.7462C138.979 60.7462 138.635 60.8008 138.34 60.91C138.044 61.0128 137.797 61.1638 137.598 61.363C137.405 61.5621 137.257 61.8063 137.154 62.0954C137.052 62.3781 136.994 62.6993 136.981 63.0591L136.432 62.9916C136.432 62.3299 136.499 61.7163 136.634 61.1509C136.769 60.5856 136.965 60.0909 137.222 59.6668C137.479 59.2428 137.8 58.9151 138.186 58.6838C138.577 58.4461 139.027 58.3273 139.535 58.3273C139.676 58.3273 139.827 58.3401 139.988 58.3658C140.155 58.3851 140.286 58.414 140.383 58.4526Z" fill="black"/>
</svg>
