<svg width="59" height="58" viewBox="0 0 59 58" fill="none" xmlns="http://www.w3.org/2000/svg">
<path fill-rule="evenodd" clip-rule="evenodd" d="M49.0658 0.268436C46.7353 1.03085 45.19 2.47802 44.4414 4.59985C43.9901 5.87901 43.9482 8.30632 44.3572 9.47959L44.6511 10.3228L36.9143 18.0707C30.671 24.3225 29.0773 25.7889 28.6594 25.6654C27.4463 25.3066 24.8528 25.2297 23.8102 25.522C20.0445 26.5772 17.8315 30.8413 19.0874 34.6228C19.7165 36.5166 21.6967 38.4968 23.5904 39.1259C29.0006 40.9228 34.2193 35.8564 32.6675 30.3137L32.333 29.1194L40.075 21.3666C46.4117 15.021 47.9109 13.6443 48.3347 13.7815C48.6195 13.8737 49.7032 14.0075 50.7429 14.0787C52.4761 14.1973 52.7702 14.1406 54.286 13.3942C60.7405 10.2166 58.7839 0.507387 51.5894 0.0139511C50.7872 -0.0411915 49.6672 0.0719415 49.0658 0.268436ZM22.1873 6.82808C19.2528 7.23634 12.738 9.65434 12.738 10.3352C12.738 10.5278 18.9274 20.9472 20.2192 22.9295C20.4201 23.2376 20.6604 23.2078 21.7451 22.7413C22.4534 22.4366 23.6873 22.1104 24.487 22.0164L25.9411 21.8455V14.2439V6.64246L24.4525 6.68129C23.6339 6.70252 22.6144 6.76854 22.1873 6.82808ZM26.9767 14.2413V21.9069L27.6886 22.0653C28.0803 22.1523 28.5771 22.2704 28.793 22.3273C29.0361 22.3915 31.3373 20.2769 34.8442 16.7675L40.5032 11.1041L38.7236 10.074C35.5481 8.2359 32.2512 7.15505 28.5947 6.75326L26.9767 6.57567V14.2413ZM10.0844 11.9897C9.26552 12.6266 8.59578 13.2288 8.59578 13.3277C8.59578 13.4266 11.0578 15.953 14.0666 18.9419C17.0756 21.9307 19.4622 24.1584 19.3701 23.8925C19.2096 23.4281 12.0524 11.3529 11.7299 11.0021C11.6436 10.9081 10.9032 11.3526 10.0844 11.9897ZM6.16614 15.8541C2.64089 20.1278 0.69226 24.8577 0.175266 30.3952L0 32.2721H7.63402H15.268L15.4524 31.0427C15.7169 29.2794 16.4276 27.5571 17.4857 26.1156L18.406 24.8618L13.0144 19.4749L7.62289 14.088L6.16614 15.8541ZM41.3982 23.4157C37.9079 26.9093 35.8013 29.2062 35.8751 29.4381C35.9408 29.6442 36.0646 30.133 36.1505 30.5247L36.3064 31.2366H43.9689H51.6311L51.4442 29.4891C51.1473 26.7131 50.3737 24.1051 49.0128 21.292C48.3179 19.8557 47.5899 18.4753 47.395 18.2242C47.0716 17.8085 46.5407 18.2682 41.3982 23.4157ZM36.2966 33.0216C36.2966 34.3072 35.297 37.0804 34.3236 38.4955L33.3916 39.8505L38.7208 45.1797L44.0497 50.5086L44.9842 49.61C46.3392 48.3065 48.5991 44.8105 49.5153 42.5991C50.5342 40.1405 51.2449 37.1674 51.4665 34.4367L51.642 32.2721H43.9694H36.2966V33.0216ZM0.18355 34.5374C0.439588 36.4749 0.83879 38.4932 1.27165 40.0387C1.7933 41.9017 3.08954 44.7686 3.3461 44.6272C3.4569 44.5661 6.4359 42.7904 9.96606 40.6813C15.0136 37.6658 16.3471 36.7586 16.2086 36.4361C16.1115 36.2106 15.916 35.56 15.7736 34.9904C15.6315 34.4209 15.4764 33.8094 15.4291 33.6313C15.3628 33.3817 13.5923 33.3077 7.68191 33.3077H0.0207109L0.18355 34.5374ZM10.2138 41.7839C6.7608 43.8746 3.93584 45.7093 3.93584 45.8608C3.93584 46.2033 7.22938 50.3941 7.49836 50.3941C7.60606 50.3941 10.1051 47.9767 13.0517 45.0223L18.4088 39.6504L17.6482 38.809C17.2299 38.3464 16.7983 37.971 16.6896 37.9751C16.5809 37.9793 13.6666 39.6931 10.2138 41.7839ZM13.6935 45.9436L8.30971 51.3321L9.81203 52.5046C10.6381 53.1495 12.1254 54.1635 13.117 54.7582L14.9196 55.839L15.2227 55.2524C15.7157 54.2984 20.7634 41.9073 20.7634 41.6511C20.7634 41.5219 20.4432 41.2557 20.0515 41.0595C19.6598 40.863 19.2805 40.6694 19.2083 40.629C19.1363 40.5883 16.6544 42.9802 13.6935 45.9436ZM32.1544 40.6683C32.1544 40.9339 39.9683 53.7597 40.1301 53.7594C40.2288 53.7594 40.994 53.2219 41.8307 52.5649L43.3522 51.3707L37.9498 45.9636C33.1534 41.1631 32.1544 40.2502 32.1544 40.6683ZM30.1027 41.8926C28.0202 42.7894 25.793 43.0239 23.7403 42.5626C22.7436 42.3386 21.8968 42.1864 21.8585 42.2242C21.7658 42.3151 16.4152 55.2568 16.2334 55.8292C16.1195 56.1877 16.4297 56.3785 17.8455 56.8218C21.0976 57.8397 22.389 58.0243 26.0706 57.9976C29.0708 57.9759 30.1237 57.8581 32.1854 57.3129C34.699 56.6483 39.2551 54.6689 39.0498 54.3308C38.989 54.2303 37.226 51.2938 35.1323 47.8053C33.039 44.3168 31.3086 41.4483 31.2871 41.431C31.2659 41.4137 30.7328 41.6213 30.1027 41.8926Z" fill="#B6B6B6"/>
</svg>
