<svg width="69" height="70" viewBox="0 0 69 70" fill="none" xmlns="http://www.w3.org/2000/svg">
<path fill-rule="evenodd" clip-rule="evenodd" d="M29.8821 0.787768C22.3659 1.7266 14.9744 5.5566 9.44855 11.3749C4.02259 17.0881 1.01376 23.6642 0.183987 31.6225C-2.05742 53.127 16.5083 71.6312 37.9885 69.3014C45.8779 68.4458 52.4584 65.4197 58.1181 60.0445C72.629 46.2633 72.629 23.7423 58.1181 9.96109C50.5005 2.72627 40.4646 -0.533854 29.8821 0.787768ZM42.4777 4.7213C45.666 5.58395 50.5515 7.96944 53.0765 9.89627C57.3062 13.1241 60.3224 16.7904 62.6114 21.4855C64.9957 26.376 65.5127 28.7842 65.5127 35.0028C65.5127 41.2177 64.9969 43.6231 62.6148 48.5201C59.433 55.0615 54.5674 59.9259 48.0075 63.124C43.0961 65.5184 40.7039 66.032 34.4902 66.0262C28.2683 66.02 25.8472 65.5002 20.973 63.124C14.4131 59.9259 9.54747 55.0615 6.36569 48.5201C3.98357 43.6231 3.46777 41.2177 3.46777 35.0028C3.46777 30.5307 3.56884 29.4051 4.16944 27.1689C5.00566 24.0575 7.37303 19.073 9.13089 16.7237C14.0205 10.1884 20.9957 5.73325 28.6532 4.25557C31.925 3.62425 39.3479 3.87432 42.4777 4.7213ZM21.0295 17.7833C18.4517 18.7025 17.8542 20.103 17.4692 26.1284C17.1592 30.9792 16.739 32.2628 15.3608 32.5691C13.3719 33.0114 13.4463 32.9174 13.4463 34.9871V36.9268L14.8223 37.2731C16.868 37.7883 17.1912 38.6214 17.456 44.0655C17.6926 48.9287 18.0655 50.305 19.4397 51.386C20.4937 52.2149 22.3514 52.7313 23.8349 52.6078L24.9667 52.5138L25.0582 50.5937L25.1495 48.6737H23.7634C22.7532 48.6737 22.302 48.5277 22.1004 48.1361C21.9484 47.8402 21.7444 45.8704 21.6473 43.7583C21.443 39.324 20.9536 37.6325 19.4206 36.0617L18.3552 34.9702L19.3076 34.0649C19.8314 33.5669 20.4433 32.8081 20.6679 32.3789C21.1917 31.3771 21.741 27.4297 21.741 24.6688C21.741 21.8256 22.0015 21.4001 23.897 21.1485L25.4275 20.9454V19.1418V17.3381L23.8147 17.3517C22.9274 17.359 21.6743 17.5532 21.0295 17.7833ZM43.937 17.5415C43.6906 17.6411 43.553 18.3476 43.553 19.5141V21.3319H45.0709C45.9538 21.3319 46.6881 21.4926 46.8263 21.7159C46.9569 21.9273 47.2306 24.0701 47.4349 26.4777C47.8733 31.6459 48.1316 32.5589 49.5408 33.9248L50.6016 34.953L49.425 36.2292C48.0045 37.7704 47.6555 39.12 47.3777 44.1512C47.1507 48.2574 47.0072 48.5327 44.9317 48.8439L43.553 49.0506V50.8592V52.6674L45.0122 52.6656C45.815 52.6646 47.0244 52.5129 47.7003 52.3279C50.4609 51.5731 51.1561 50.0153 51.5312 43.7457C51.8535 38.3603 52.1583 37.6903 54.459 37.3069C55.3803 37.1533 55.3806 37.1526 55.3806 35.0071C55.3806 33.0965 55.313 32.8505 54.7662 32.7678C52.1346 32.3697 51.867 31.8118 51.5042 25.9692C51.1841 20.8152 50.9266 19.8023 49.6671 18.7424C48.3061 17.5974 45.3397 16.9756 43.937 17.5415ZM24.4036 33.2566C22.9007 34.9171 23.8675 37.3069 26.0419 37.3069C26.9553 37.3069 27.3719 37.1219 27.8628 36.4974C29.1644 34.8427 28.1509 32.6987 26.0671 32.6987C25.3378 32.6987 24.7212 32.9054 24.4036 33.2566ZM32.8006 33.3131C32.4203 33.6934 32.1862 34.3371 32.1862 35.0028C32.1862 35.6685 32.4203 36.3121 32.8006 36.6924C33.1809 37.0728 33.8245 37.3069 34.4902 37.3069C35.156 37.3069 35.7996 37.0728 36.1799 36.6924C36.5602 36.3121 36.7943 35.6685 36.7943 35.0028C36.7943 34.3371 36.5602 33.6934 36.1799 33.3131C35.7996 32.9328 35.156 32.6987 34.4902 32.6987C33.8245 32.6987 33.1809 32.9328 32.8006 33.3131ZM41.1177 33.5082C40.7675 33.9533 40.4809 34.6258 40.4809 35.0028C40.4809 35.3797 40.7675 36.0522 41.1177 36.4974C42.479 38.2279 45.3962 37.1124 45.3962 34.8612C45.3962 32.8517 42.3834 31.899 41.1177 33.5082Z" fill="#B6B6B6"/>
</svg>
